<svg width="193" height="179" viewBox="0 0 193 179" fill="none" xmlns="http://www.w3.org/2000/svg">
<path d="M123.555 11.6886L149.308 26.5573L149.308 56.2954L123.555 71.1635L97.8017 56.2948L97.8002 26.5571L123.555 11.6886Z" stroke="url(#paint0_linear_895_51)"/>
<path d="M43.039 26.5574L68.7923 11.6887L94.5463 26.5577L94.5457 56.295L68.7924 71.1636L43.038 56.296L43.039 26.5574Z" stroke="url(#paint1_linear_895_51)"/>
<path d="M15.6576 74.1488L41.4109 59.2802L67.1649 74.1491L67.1643 103.886L41.4111 118.755L15.6567 103.887L15.6576 74.1488Z" stroke="url(#paint2_linear_895_51)"/>
<path d="M70.4208 74.1488L96.1741 59.2802L121.928 74.1491L121.928 103.886L96.1742 118.755L70.4199 103.887L70.4208 74.1488Z" stroke="url(#paint3_linear_895_51)"/>
<path d="M97.8017 121.74L123.555 106.872L149.309 121.741L149.308 151.478L123.555 166.347L97.8007 151.479L97.8017 121.74Z" stroke="url(#paint4_linear_895_51)"/>
<path d="M43.039 121.74L68.7923 106.872L94.5463 121.741L94.5457 151.478L68.7924 166.347L43.038 151.479L43.039 121.74Z" stroke="url(#paint5_linear_895_51)"/>
<path d="M151.589 59.28L177.342 74.1487L177.342 103.887L151.589 118.755L125.835 103.886L125.834 74.1485L151.589 59.28Z" stroke="url(#paint6_linear_895_51)"/>
<path fill-rule="evenodd" clip-rule="evenodd" d="M106.371 96.8598C106.764 97.1696 106.83 97.7398 106.521 98.1317C103.745 101.655 99.3298 103.787 94.52 103.443C86.8021 102.891 80.9923 96.1766 81.543 88.4446C81.9327 82.968 85.4095 78.4519 90.1434 76.4798C90.6051 76.2874 91.1333 76.5052 91.3254 76.9679C91.5175 77.4291 91.2986 77.9597 90.8382 78.1506C86.7117 79.871 83.6853 83.8055 83.3462 88.5733C82.866 95.3078 87.926 101.156 94.6483 101.636C98.8355 101.936 102.681 100.083 105.102 97.0098C105.411 96.6165 105.98 96.55 106.371 96.8598Z" fill="#F4A800"/>
<path fill-rule="evenodd" clip-rule="evenodd" d="M99.2819 87.7628C98.8483 87.5959 98.3964 87.4657 97.929 87.3766C97.8979 87.3709 97.8654 87.3639 97.8329 87.3582C97.542 87.3073 97.542 86.8885 97.8329 86.8375C97.8654 86.8319 97.8979 86.8248 97.929 86.8192C98.3964 86.73 98.8483 86.5999 99.2819 86.4329C99.5347 86.3367 99.7804 86.2278 100.019 86.1061C101.527 85.3421 102.756 84.1112 103.519 82.6002C103.64 82.3611 103.749 82.115 103.845 81.8617C104.011 81.4274 104.141 80.9746 104.23 80.5063C104.236 80.4752 104.243 80.4427 104.249 80.4101C104.3 80.1187 104.718 80.1187 104.768 80.4101C104.774 80.4427 104.781 80.4752 104.787 80.5063C104.876 80.9746 105.006 81.4274 105.172 81.8617C105.268 82.1149 105.377 82.3611 105.498 82.6002C106.261 84.1112 107.49 85.3421 108.998 86.1061C109.237 86.2278 109.482 86.3367 109.735 86.4329C110.169 86.5999 110.621 86.73 111.088 86.8192C111.119 86.8248 111.152 86.8319 111.184 86.8375C111.475 86.8885 111.475 87.3073 111.184 87.3582C111.152 87.3639 111.119 87.3709 111.088 87.3766C110.621 87.4657 110.169 87.5959 109.735 87.7628C109.482 87.859 109.237 87.968 108.998 88.0896C107.49 88.8536 106.261 90.0845 105.498 91.5955C105.377 91.8346 105.268 92.0808 105.172 92.334C105.006 92.7684 104.876 93.2211 104.787 93.6894C104.781 93.7205 104.774 93.7531 104.768 93.7856C104.718 94.0771 104.3 94.0771 104.249 93.7856C104.243 93.7531 104.236 93.7205 104.23 93.6894C104.141 93.2211 104.011 92.7684 103.845 92.334C103.749 92.0808 103.64 91.8346 103.519 91.5955C102.756 90.0845 101.527 88.8536 100.019 88.0896C99.7804 87.968 99.5347 87.859 99.2819 87.7628Z" fill="#F44A0E"/>
<path fill-rule="evenodd" clip-rule="evenodd" d="M96.4549 78.7703C96.01 78.4973 95.5115 78.2992 94.9791 78.1974C94.9607 78.1945 94.9438 78.1917 94.9254 78.1875C94.7644 78.1592 94.7644 77.9271 94.9254 77.8988C94.9438 77.8946 94.9607 77.8918 94.9791 77.8889C95.5115 77.7871 96.01 77.589 96.4549 77.3159C96.6243 77.2113 96.7867 77.0967 96.9407 76.9707C97.168 76.784 97.377 76.5746 97.5635 76.3468C97.6892 76.1926 97.8036 76.0299 97.9081 75.8601C98.1806 75.4144 98.3783 74.915 98.48 74.3816C98.4828 74.3632 98.4857 74.3463 98.4899 74.3279C98.5181 74.1666 98.7497 74.1666 98.778 74.3279C98.7822 74.3463 98.7851 74.3632 98.7879 74.3816C98.8896 74.915 99.0873 75.4145 99.3598 75.8601C99.4643 76.0299 99.5787 76.1926 99.7044 76.3468C99.8908 76.5746 100.1 76.784 100.327 76.9707C100.481 77.0967 100.644 77.2112 100.813 77.3159C101.258 77.589 101.756 77.7871 102.289 77.8889C102.307 77.8918 102.324 77.8946 102.342 77.8988C102.503 77.9271 102.503 78.1592 102.342 78.1875C102.324 78.1917 102.307 78.1945 102.289 78.1974C101.756 78.2992 101.258 78.4973 100.813 78.7703C100.644 78.875 100.481 78.9896 100.327 79.1155C100.1 79.3023 99.8908 79.5117 99.7044 79.7395C99.5787 79.8937 99.4643 80.0564 99.3598 80.2262C99.0873 80.6719 98.8895 81.1713 98.7879 81.7046C98.7851 81.723 98.7822 81.74 98.778 81.7584C98.7497 81.9197 98.5181 81.9197 98.4899 81.7584C98.4857 81.74 98.4828 81.723 98.48 81.7046C98.3783 81.1713 98.1806 80.6718 97.9081 80.2262C97.8036 80.0564 97.6892 79.8937 97.5635 79.7395C97.3771 79.5117 97.168 79.3023 96.9407 79.1155C96.7867 78.9896 96.6243 78.875 96.4549 78.7703Z" fill="#F4A800"/>
<path fill-rule="evenodd" clip-rule="evenodd" d="M108.97 80.5954C109.172 80.8911 109.317 81.2306 109.387 81.5985C109.389 81.6084 109.391 81.6197 109.394 81.631C109.411 81.7272 109.549 81.7272 109.566 81.631C109.569 81.6197 109.57 81.6084 109.573 81.5985C109.642 81.2306 109.788 80.8911 109.99 80.5954C110.059 80.4964 110.134 80.4002 110.216 80.311C110.271 80.2516 110.329 80.1936 110.388 80.1384C110.477 80.0564 110.573 79.9814 110.672 79.9121C110.967 79.7097 111.306 79.564 111.673 79.4947C111.683 79.4919 111.694 79.4905 111.705 79.4876C111.801 79.4707 111.801 79.332 111.705 79.315C111.694 79.3122 111.683 79.3108 111.673 79.308C111.306 79.2386 110.967 79.0929 110.672 78.8906C110.573 78.8213 110.477 78.7463 110.388 78.6642C110.329 78.6091 110.271 78.5511 110.216 78.4916C110.134 78.4025 110.059 78.3063 109.99 78.2073C109.788 77.9116 109.642 77.572 109.573 77.2042C109.57 77.1943 109.569 77.183 109.566 77.1716C109.549 77.0754 109.411 77.0754 109.394 77.1716C109.391 77.183 109.389 77.1943 109.387 77.2042C109.317 77.572 109.172 77.9116 108.97 78.2073C108.901 78.3063 108.826 78.4025 108.744 78.4916C108.689 78.5511 108.631 78.6091 108.572 78.6642C108.483 78.7463 108.387 78.8213 108.288 78.8906C107.993 79.0929 107.654 79.2386 107.287 79.308C107.277 79.3108 107.265 79.3122 107.254 79.315C107.158 79.332 107.158 79.4707 107.254 79.4876C107.265 79.4905 107.277 79.4919 107.287 79.4947C107.654 79.564 107.993 79.7098 108.288 79.9121C108.387 79.9814 108.483 80.0564 108.572 80.1384C108.631 80.1936 108.689 80.2516 108.744 80.311C108.826 80.4002 108.901 80.4964 108.97 80.5954Z" fill="#177BF8"/>
<defs>
<linearGradient id="paint0_linear_895_51" x1="138.713" y1="15.1724" x2="108.398" y2="67.6796" gradientUnits="userSpaceOnUse">
<stop stop-color="#F44A0E"/>
<stop offset="1" stop-color="#FBBC05"/>
</linearGradient>
<linearGradient id="paint1_linear_895_51" x1="53.6348" y1="15.1723" x2="83.9499" y2="67.6796" gradientUnits="userSpaceOnUse">
<stop stop-color="#80C7A5"/>
<stop offset="1" stop-color="#D4D4D8"/>
</linearGradient>
<linearGradient id="paint2_linear_895_51" x1="26.2535" y1="62.7637" x2="56.5686" y2="115.271" gradientUnits="userSpaceOnUse">
<stop stop-color="#F44A0E"/>
<stop offset="1" stop-color="#80C7A5"/>
</linearGradient>
<linearGradient id="paint3_linear_895_51" x1="81.0167" y1="62.7637" x2="111.332" y2="115.271" gradientUnits="userSpaceOnUse">
<stop stop-color="#F44A0E"/>
<stop offset="1" stop-color="#1877F2"/>
</linearGradient>
<linearGradient id="paint4_linear_895_51" x1="108.398" y1="110.355" x2="138.713" y2="162.863" gradientUnits="userSpaceOnUse">
<stop stop-color="#D4D4D8"/>
<stop offset="1" stop-color="#1877F2"/>
</linearGradient>
<linearGradient id="paint5_linear_895_51" x1="53.6348" y1="110.355" x2="83.9499" y2="162.863" gradientUnits="userSpaceOnUse">
<stop stop-color="#1877F2"/>
<stop offset="1" stop-color="#FBBC05"/>
</linearGradient>
<linearGradient id="paint6_linear_895_51" x1="172.777" y1="89.3433" x2="122.252" y2="89.3433" gradientUnits="userSpaceOnUse">
<stop stop-color="#F44A0E"/>
<stop offset="1" stop-color="#D4D4D8"/>
</linearGradient>
</defs>
</svg>
