<svg width="17" height="17" viewBox="0 0 17 17" fill="none" xmlns="http://www.w3.org/2000/svg">
<path d="M10.795 1.41675H8.03675C6.78725 1.41675 5.797 1.41675 5.02279 1.52158C4.22521 1.62925 3.57992 1.85591 3.07133 2.36662C2.56204 2.87733 2.33608 3.52546 2.22913 4.32587C2.125 5.10362 2.125 6.09741 2.125 7.35187V11.4871C2.125 12.5553 2.77667 13.4705 3.70246 13.8544C3.655 13.2098 3.655 12.3067 3.655 11.5544V8.00566C3.655 7.09829 3.655 6.31558 3.73858 5.68941C3.82854 5.01791 4.03113 4.37475 4.55104 3.85271C5.07096 3.33066 5.712 3.12737 6.38067 3.03671C7.004 2.95312 7.78317 2.95312 8.68771 2.95312H10.8623C11.7661 2.95312 12.5439 2.95312 13.1679 3.03671C12.981 2.5595 12.6546 2.14969 12.2313 1.86072C11.808 1.57175 11.3075 1.41704 10.795 1.41675Z" fill="#4B5563" fill-opacity="0.87"/>
<path d="M4.67505 8.07285C4.67505 6.14194 4.67505 5.17648 5.27288 4.57652C5.87001 3.97656 6.83122 3.97656 8.75505 3.97656H10.7951C12.7182 3.97656 13.6801 3.97656 14.2779 4.57652C14.8758 5.17648 14.8751 6.14194 14.8751 8.07285V11.487C14.8751 13.4179 14.8751 14.3834 14.2779 14.9834C13.6801 15.5833 12.7182 15.5833 10.7951 15.5833H8.75505C6.83192 15.5833 5.87001 15.5833 5.27288 14.9834C4.67505 14.3834 4.67505 13.4179 4.67505 11.487V8.07285Z" fill="#4B5563" fill-opacity="0.87"/>
</svg>
