<svg width="100" height="100" viewBox="0 0 100 100" fill="none" xmlns="http://www.w3.org/2000/svg">
<circle cx="50" cy="50" r="50" fill="#F44A0E" fill-opacity="0.33"/>
<path opacity="0.5" d="M55.5834 31.25H46.4167C37.7743 31.25 33.4531 31.25 30.7682 33.9959C28.0834 36.7417 28.0834 41.1612 28.0834 50C28.0834 58.8388 28.0834 63.2583 30.7682 66.0041C33.4531 68.75 37.7743 68.75 46.4167 68.75H55.5834C64.2258 68.75 68.547 68.75 71.2319 66.0041C73.9167 63.2583 73.9167 58.8388 73.9167 50C73.9167 41.1612 73.9167 36.7417 71.2319 33.9959C68.547 31.25 64.2258 31.25 55.5834 31.25Z" fill="#DC2626"/>
<path d="M65.8507 41.7375C66.58 41.1298 66.6785 40.046 66.0708 39.3168C65.4631 38.5876 64.3793 38.4891 63.6501 39.0967L58.7026 43.2196C56.5646 45.0013 55.0802 46.2343 53.827 47.0403C52.6139 47.8206 51.7912 48.0825 51.0004 48.0825C50.2096 48.0825 49.3869 47.8206 48.1738 47.0403C46.9206 46.2343 45.4362 45.0013 43.2982 43.2196L38.3507 39.0967C37.6215 38.4891 36.5377 38.5876 35.93 39.3168C35.3223 40.046 35.4209 41.1298 36.1501 41.7375L41.1837 45.9322C43.215 47.6249 44.8613 48.9969 46.3144 49.9315C47.828 50.905 49.3021 51.52 51.0004 51.52C52.6987 51.52 54.1728 50.905 55.6865 49.9315C57.1395 48.9969 58.7859 47.6249 60.8171 45.9322L65.8507 41.7375Z" fill="#DC2626"/>
</svg>
