<svg width="31" height="34" viewBox="0 0 31 34" fill="none" xmlns="http://www.w3.org/2000/svg">
<rect x="0.5" y="0.5" width="30" height="33" rx="4.5" fill="#F44A0E"/>
<rect x="0.5" y="0.5" width="30" height="33" rx="4.5" stroke="#F44A0E"/>
<path d="M16 22.0416C16.5195 22.0416 17.0084 21.9463 17.4667 21.7556C17.925 21.5649 18.3528 21.2936 18.75 20.9416C18.8875 20.8194 18.9563 20.6589 18.9563 20.4603C18.9563 20.2617 18.8875 20.1013 18.75 19.9791C18.6125 19.8569 18.4485 19.7958 18.2578 19.7958C18.0671 19.7958 17.8951 19.8569 17.7417 19.9791C17.482 20.1777 17.207 20.3381 16.9167 20.4603C16.6264 20.5826 16.3209 20.6437 16 20.6437C15.6792 20.6437 15.3737 20.5826 15.0834 20.4603C14.7931 20.3381 14.5181 20.1777 14.2584 19.9791C14.1056 19.8569 13.9339 19.7958 13.7432 19.7958C13.5525 19.7958 13.3882 19.8569 13.25 19.9791C13.1119 20.1013 13.0432 20.2617 13.0438 20.4603C13.0444 20.6589 13.1132 20.8194 13.25 20.9416C13.6473 21.2777 14.075 21.5451 14.5334 21.7437C14.9917 21.9423 15.4806 22.0416 16 22.0416ZM16 26.1666C14.732 26.1666 13.5403 25.9258 12.425 25.4443C11.3098 24.9627 10.3396 24.3097 9.51463 23.4853C8.68963 22.6609 8.03665 21.6908 7.55571 20.5749C7.07476 19.459 6.83399 18.2674 6.83338 16.9999C6.83276 15.7325 7.07354 14.5408 7.55571 13.4249C8.03788 12.309 8.69085 11.3389 9.51463 10.5145C10.3384 9.69011 11.3085 9.03714 12.425 8.55559C13.5415 8.07403 14.7332 7.83325 16 7.83325C17.2669 7.83325 18.4585 8.07403 19.575 8.55559C20.6915 9.03714 21.6617 9.69011 22.4855 10.5145C23.3092 11.3389 23.9625 12.309 24.4453 13.4249C24.9281 14.5408 25.1685 15.7325 25.1667 16.9999C25.1649 18.2674 24.9241 19.459 24.4444 20.5749C23.9647 21.6908 23.3117 22.6609 22.4855 23.4853C21.6592 24.3097 20.6891 24.963 19.575 25.4452C18.461 25.9273 17.2693 26.1678 16 26.1666ZM12.7917 16.9999C13.3112 16.9999 13.7695 16.8319 14.1667 16.4958C14.5639 16.1596 14.8695 15.7471 15.0834 15.2583C15.1598 15.0902 15.1482 14.9298 15.0485 14.777C14.9489 14.6242 14.8078 14.5249 14.625 14.4791C14.457 14.4333 14.2889 14.4525 14.1209 14.5368C13.9528 14.6212 13.8306 14.7471 13.7542 14.9145C13.6473 15.1131 13.5137 15.2812 13.3536 15.4187C13.1935 15.5562 13.0062 15.6249 12.7917 15.6249C12.5772 15.6249 12.3862 15.5525 12.2188 15.4077C12.0513 15.2628 11.9215 15.0908 11.8292 14.8916C11.7528 14.7235 11.6306 14.6013 11.4625 14.5249C11.2945 14.4485 11.1264 14.4333 10.9584 14.4791C10.775 14.5249 10.6339 14.6206 10.5349 14.766C10.4359 14.9114 10.4243 15.0679 10.5 15.2353C10.7139 15.7242 11.0158 16.1407 11.4057 16.4848C11.7956 16.8288 12.2576 17.0005 12.7917 16.9999ZM19.2084 16.9999C19.7278 16.9999 20.1862 16.8319 20.5834 16.4958C20.9806 16.1596 21.2862 15.7471 21.5 15.2583C21.5764 15.0902 21.5648 14.9298 21.4652 14.777C21.3656 14.6242 21.2244 14.5249 21.0417 14.4791C20.8737 14.4333 20.7056 14.4525 20.5375 14.5368C20.3695 14.6212 20.2473 14.7471 20.1709 14.9145C20.0639 15.1131 19.9304 15.2812 19.7703 15.4187C19.6102 15.5562 19.4229 15.6249 19.2084 15.6249C18.9939 15.6249 18.8029 15.5525 18.6355 15.4077C18.468 15.2628 18.3382 15.0908 18.2459 14.8916C18.1695 14.7235 18.0473 14.6013 17.8792 14.5249C17.7112 14.4485 17.5431 14.4333 17.375 14.4791C17.1917 14.5249 17.0502 14.6206 16.9506 14.766C16.851 14.9114 16.8397 15.0679 16.9167 15.2353C17.1306 15.7242 17.4325 16.1407 17.8224 16.4848C18.2123 16.8288 18.6743 17.0005 19.2084 16.9999Z" fill="white"/>
</svg>
