<svg width="27" height="24" viewBox="0 0 27 24" fill="none" xmlns="http://www.w3.org/2000/svg">
<g clip-path="url(#clip0_898_3)">
<path d="M24.0456 6.01782H2.29231C1.77545 6.01782 1.35645 6.44396 1.35645 6.96963V23.0322C1.35645 23.5578 1.77545 23.984 2.29231 23.984H24.0456C24.5624 23.984 24.9814 23.5578 24.9814 23.0322V6.96963C24.9814 6.44396 24.5624 6.01782 24.0456 6.01782Z" fill="#4989F5"/>
<path d="M23.7725 5.88281H2.53921C1.88146 5.88281 1.36963 11.0599 1.36963 11.7289L12.9976 23.9839H23.7725C24.4323 23.9821 24.9667 23.4386 24.9685 22.7676V7.0989C24.9665 6.42799 24.4322 5.88464 23.7725 5.88281Z" fill="url(#paint0_linear_898_3)"/>
<path d="M6.75073 9.02653H13.5007V0.0163574H7.76146L6.75073 9.02653Z" fill="#3C4BA6"/>
<path d="M20.2507 9.02653H13.5007V0.0163574H19.24L20.2507 9.02653ZM24.9813 1.72435L24.9897 1.75506C24.9877 1.74422 24.9836 1.73415 24.9813 1.72435Z" fill="#7BABF7"/>
<path d="M24.9897 1.75481L24.9813 1.7241C24.7673 0.727465 23.9 0.0167585 22.8969 0.0161133H19.24L20.25 9.02654H27L24.9897 1.75481Z" fill="#3F51B5"/>
<path d="M2.02009 1.72437L2.01172 1.75508C2.01375 1.74424 2.01781 1.73417 2.02009 1.72437Z" fill="#7BABF7"/>
<path d="M2.01155 1.75481L2.01992 1.7241C2.23392 0.727465 3.10127 0.0167585 4.1043 0.0161133H7.76149L6.75 9.02654H0L2.01155 1.75481Z" fill="#7BABF7"/>
<path fill-rule="evenodd" clip-rule="evenodd" d="M6.76206 9.02417C6.76206 10.9188 5.25186 12.4547 3.38897 12.4547C1.52607 12.4547 0.0158691 10.9188 0.0158691 9.02417H6.76206Z" fill="#709BE0"/>
<path fill-rule="evenodd" clip-rule="evenodd" d="M13.5084 9.02417C13.5084 10.9188 11.9982 12.4547 10.1353 12.4547C8.2724 12.4547 6.76221 10.9188 6.76221 9.02417H13.5084Z" fill="#3C4BA6"/>
<path fill-rule="evenodd" clip-rule="evenodd" d="M20.2545 9.02417C20.2545 10.9188 18.7443 12.4547 16.8814 12.4547C15.0185 12.4547 13.5083 10.9188 13.5083 9.02417H20.2545Z" fill="#709BE0"/>
<path fill-rule="evenodd" clip-rule="evenodd" d="M27.0001 9.02417C27.0001 10.9188 25.4899 12.4547 23.627 12.4547C21.7641 12.4547 20.2539 10.9188 20.2539 9.02417H27.0001Z" fill="#3C4BA6"/>
<path d="M23.6271 18.3185C23.6152 18.1552 23.5954 18.006 23.5672 17.8155H19.8877C19.8877 18.3389 19.8877 18.9101 19.8857 19.4337H22.0173C21.972 19.6778 21.8797 19.9103 21.7458 20.118C21.6119 20.3256 21.439 20.5044 21.2369 20.6439C21.2369 20.6439 21.2369 20.6348 21.2354 20.6346C20.9745 20.8088 20.6806 20.9255 20.3726 20.9771C20.0639 21.0345 19.7473 21.0331 19.4391 20.9729C19.1261 20.907 18.8297 20.7764 18.5684 20.5892C18.1827 20.311 17.8853 19.9244 17.7125 19.4768C17.6993 19.442 17.6871 19.4069 17.6747 19.3713V19.3674L17.678 19.3648C17.5103 18.8642 17.5098 18.3213 17.6767 17.8204C17.7942 17.4691 17.9877 17.149 18.2428 16.8836C18.8414 16.2539 19.7357 16.0171 20.5602 16.2699C20.8763 16.3685 21.1652 16.5414 21.4034 16.7747L22.1226 16.0433C22.2494 15.913 22.3811 15.7868 22.5032 15.652C22.1386 15.3061 21.7105 15.0365 21.2435 14.8587C20.3937 14.5453 19.4639 14.537 18.6088 14.8352C18.579 14.8455 18.5494 14.8563 18.5199 14.8675C17.5974 15.2202 16.8384 15.912 16.3929 16.8062C16.2356 17.1227 16.1211 17.4593 16.0524 17.807C15.6451 19.8658 16.8802 21.8923 18.8744 22.437C19.5264 22.6146 20.2194 22.6102 20.8764 22.4584C21.4733 22.3214 22.0252 22.0297 22.4786 21.6117C22.9516 21.1691 23.2906 20.5793 23.4683 19.953C23.6168 19.4222 23.6706 18.8686 23.6271 18.3185Z" fill="white"/>
</g>
<defs>
<linearGradient id="paint0_linear_898_3" x1="1.36963" y1="8410.88" x2="25110.3" y2="8410.88" gradientUnits="userSpaceOnUse">
<stop offset="0.03" stop-color="#4079D8"/>
<stop offset="1" stop-color="#4989F5"/>
</linearGradient>
<clipPath id="clip0_898_3">
<rect width="27" height="24" fill="white"/>
</clipPath>
</defs>
</svg>
