<svg width="20" height="22" viewBox="0 0 20 22" fill="none" xmlns="http://www.w3.org/2000/svg">
<path d="M20 11.1226C20 10.2837 19.9319 9.67141 19.7846 9.0365H10.2041V12.8233H15.8276C15.7143 13.7644 15.102 15.1816 13.7415 16.1339L13.7224 16.2607L16.7516 18.6074L16.9614 18.6283C18.8888 16.8483 20 14.2292 20 11.1226Z" fill="#4285F4"/>
<path d="M10.2041 21.1C12.9591 21.1 15.272 20.1929 16.9614 18.6283L13.7415 16.134C12.8798 16.7349 11.7233 17.1544 10.2041 17.1544C7.50569 17.1544 5.21545 15.3744 4.39905 12.9141L4.27938 12.9242L1.1296 15.3619L1.08841 15.4764C2.7664 18.8097 6.21312 21.1 10.2041 21.1Z" fill="#34A853"/>
<path d="M4.39905 12.9141C4.18363 12.2792 4.05897 11.5988 4.05897 10.8959C4.05897 10.1929 4.18363 9.51269 4.38772 8.87777L4.38201 8.74255L1.19276 6.26575L1.08841 6.31538C0.39683 7.69862 0 9.25194 0 10.8959C0 12.5399 0.39683 14.0931 1.08841 15.4764L4.39905 12.9141Z" fill="#FBBC05"/>
<path d="M10.2041 4.63739C12.1202 4.63739 13.4126 5.46505 14.1496 6.1567L17.0294 3.34489C15.2608 1.70091 12.9591 0.691833 10.2041 0.691833C6.21312 0.691833 2.7664 2.98207 1.08841 6.31537L4.38772 8.87777C5.21546 6.41745 7.50569 4.63739 10.2041 4.63739Z" fill="#EB4335"/>
</svg>
