<svg width="13" height="16" viewBox="0 0 13 16" fill="none" xmlns="http://www.w3.org/2000/svg">
<path fill-rule="evenodd" clip-rule="evenodd" d="M6.49999 0.139526C10.0113 0.139526 12.8583 2.94273 12.8583 6.40001C12.8583 9.85729 10.0113 12.6605 6.49999 12.6605C2.98869 12.6605 0.141693 9.85729 0.141693 6.40001C0.141693 2.94273 2.98869 0.139526 6.49999 0.139526ZM6.98489 2.44737C7.58289 2.44737 8.06779 2.92481 8.06779 3.51361C8.06779 4.10113 7.58289 4.57857 6.98489 4.57857C6.38689 4.57857 5.90329 4.10113 5.90329 3.51361C5.90329 2.92481 6.38689 2.44737 6.98489 2.44737ZM5.14929 5.17249C5.14929 5.17249 7.05249 5.17249 7.40999 5.17249C7.76879 5.17249 7.86889 5.47457 7.80259 5.70625C7.73499 5.93665 7.09669 9.26209 7.32159 9.63713C7.54519 10.0122 8.06389 9.39009 8.24329 9.37985C8.42139 9.36833 8.55659 9.53089 8.45909 9.78817C8.36159 10.0442 7.79089 10.6112 6.58969 10.6112C5.38849 10.6112 4.97769 9.62561 5.17919 8.61185C5.38069 7.59809 5.65239 6.34113 5.66799 6.16833C5.68229 5.99553 5.65889 5.77153 5.37159 5.77409C5.26759 5.77409 5.16619 5.77153 5.08039 5.75617C4.66439 5.67937 4.77359 5.16225 5.14929 5.17249Z" fill="black"/>
</svg>
