<svg width="37" height="34" viewBox="0 0 37 34" fill="none" xmlns="http://www.w3.org/2000/svg">
<rect x="0.5" y="0.5" width="36" height="33" rx="4.5" fill="#F44A0E"/>
<rect x="0.5" y="0.5" width="36" height="33" rx="4.5" stroke="#F44A0E"/>
<path d="M16.367 7.25H21.633C22.725 7.25 23.591 7.25 24.288 7.307C25.002 7.365 25.605 7.487 26.157 7.767C27.0506 8.22284 27.777 8.94992 28.232 9.844C28.513 10.394 28.635 10.998 28.693 11.712C28.75 12.409 28.75 13.275 28.75 14.367V19.633C28.75 20.725 28.75 21.591 28.693 22.288C28.635 23.002 28.513 23.605 28.233 24.157C27.7774 25.0505 27.0507 25.7768 26.157 26.232C25.605 26.513 25.002 26.635 24.288 26.693C23.591 26.75 22.725 26.75 21.633 26.75H16.367C15.275 26.75 14.409 26.75 13.712 26.693C12.998 26.635 12.395 26.513 11.844 26.233C10.9501 25.7776 10.2234 25.0509 9.768 24.157C9.487 23.605 9.365 23.002 9.307 22.288C9.25 21.591 9.25 20.725 9.25 19.633V14.367C9.25 13.275 9.25 12.409 9.307 11.712C9.365 10.998 9.487 10.395 9.767 9.844C10.2227 8.94999 10.9498 8.22324 11.844 7.768C12.394 7.487 12.998 7.365 13.712 7.307C14.409 7.25 15.275 7.25 16.367 7.25ZM13.834 8.802C13.214 8.852 12.829 8.949 12.524 9.104C11.9126 9.41556 11.4156 9.91263 11.104 10.524C10.949 10.829 10.853 11.214 10.802 11.834C10.77 12.226 10.758 12.685 10.752 13.25H27.247C27.2474 12.7776 27.2311 12.3053 27.198 11.834C27.148 11.214 27.051 10.829 26.896 10.524C26.5844 9.91263 26.0874 9.41556 25.476 9.104C25.171 8.949 24.786 8.853 24.166 8.802C23.536 8.751 22.732 8.75 21.6 8.75H16.4C15.268 8.75 14.463 8.75 13.834 8.802Z" fill="white"/>
</svg>
