<svg width="17" height="17" viewBox="0 0 17 17" fill="none" xmlns="http://www.w3.org/2000/svg">
<path d="M13.0028 1.1433C13.0754 1.02251 13.1929 0.935471 13.3296 0.901332C13.4663 0.867193 13.6109 0.888748 13.7317 0.961256L13.7338 0.962672L13.736 0.964089L13.743 0.968339C13.7706 0.985356 13.7975 1.00331 13.8238 1.02217C13.8743 1.05712 13.9397 1.10717 14.02 1.17234C14.1772 1.30338 14.3827 1.49959 14.5881 1.76592C15.0003 2.30213 15.4062 3.12167 15.4062 4.25005C15.4062 5.37842 15.0003 6.19796 14.5881 6.73417C14.3827 7.00051 14.1772 7.19671 14.02 7.32776C13.9347 7.39906 13.8453 7.46529 13.7523 7.52609L13.743 7.53176L13.736 7.53601L13.7338 7.53742L13.7324 7.53813C13.7324 7.53813 13.7317 7.53884 13.4583 7.08338L13.7317 7.53884C13.6114 7.60712 13.4692 7.62578 13.3353 7.59084C13.2015 7.5559 13.0865 7.47012 13.0149 7.35175C12.9433 7.23337 12.9207 7.09174 12.9519 6.95696C12.9832 6.82219 13.0657 6.7049 13.182 6.63005L13.1856 6.62721L13.2139 6.60809C13.2427 6.58826 13.2845 6.55614 13.3393 6.51176C13.4477 6.42109 13.5964 6.28084 13.7452 6.08676C14.0413 5.70213 14.3437 5.10501 14.3437 4.25005C14.3437 3.39509 14.0413 2.79796 13.7459 2.41334C13.6263 2.25725 13.4899 2.11473 13.3393 1.98834C13.2898 1.94755 13.2385 1.90903 13.1856 1.87288L13.182 1.87005C13.0623 1.79708 12.9763 1.67973 12.9427 1.54359C12.9091 1.40746 12.9308 1.26357 13.0028 1.1433ZM7.08329 7.08338C7.83474 7.08338 8.55541 6.78487 9.08676 6.25352C9.61811 5.72216 9.91663 5.00149 9.91663 4.25005C9.91663 3.4986 9.61811 2.77793 9.08676 2.24658C8.55541 1.71523 7.83474 1.41671 7.08329 1.41671C6.33185 1.41671 5.61118 1.71523 5.07982 2.24658C4.54847 2.77793 4.24996 3.4986 4.24996 4.25005C4.24996 5.00149 4.54847 5.72216 5.07982 6.25352C5.61118 6.78487 6.33185 7.08338 7.08329 7.08338ZM1.41663 12.3959C1.41663 14.1561 1.41663 15.5834 7.08329 15.5834C12.75 15.5834 12.75 14.1561 12.75 12.3959C12.75 10.6357 10.2127 9.20838 7.08329 9.20838C3.95388 9.20838 1.41663 10.6357 1.41663 12.3959Z" fill="#4B5563" fill-opacity="0.87"/>
<path d="M12.3151 2.37783C12.2552 2.34181 12.1889 2.31795 12.1198 2.30761C12.0507 2.29727 11.9803 2.30065 11.9126 2.31756C11.8448 2.33447 11.781 2.36457 11.7249 2.40615C11.6688 2.44773 11.6214 2.49996 11.5855 2.55987L11.7626 3.2852L11.7675 3.28874L11.8122 3.32345C11.8547 3.35887 11.9142 3.41483 11.9751 3.49345C12.1396 3.71078 12.2255 3.97748 12.2188 4.24995C12.2255 4.52243 12.1396 4.78913 11.9751 5.00645C11.9157 5.08415 11.8459 5.15327 11.7675 5.21187L11.7619 5.2147C11.6441 5.28917 11.5603 5.40693 11.5285 5.5426C11.4967 5.67828 11.5196 5.821 11.592 5.94002C11.6645 6.05904 11.7808 6.14482 11.9159 6.17887C12.0511 6.21293 12.1942 6.19253 12.3144 6.12208H12.3158L12.3172 6.12066L12.3193 6.11995L12.3243 6.11641L12.3385 6.10791C12.3922 6.07318 12.4436 6.03484 12.4922 5.99316C12.5835 5.91737 12.7004 5.80545 12.8173 5.65387C13.1245 5.25091 13.2879 4.75663 13.2813 4.24995C13.2879 3.74328 13.1245 3.24899 12.8173 2.84604C12.6919 2.68284 12.5435 2.53873 12.3767 2.4182L12.3385 2.39199L12.3243 2.38349L12.3193 2.37995L12.3172 2.37924L12.3158 2.37854C12.3158 2.37854 12.3151 2.37783 12.0417 2.83329L12.3151 2.37783Z" fill="#4B5563" fill-opacity="0.87"/>
</svg>
