<svg width="25" height="24" viewBox="0 0 25 24" fill="none" xmlns="http://www.w3.org/2000/svg">
<path opacity="0.5" d="M4.61011 12C4.61011 9.94457 5.42662 7.97333 6.88003 6.51992C8.33344 5.06652 10.3047 4.25 12.3601 4.25C14.4155 4.25 16.3868 5.06652 17.8402 6.51992C19.2936 7.97333 20.1101 9.94457 20.1101 12C20.1101 14.0554 19.2936 16.0267 17.8402 17.4801C16.3868 18.9335 14.4155 19.75 12.3601 19.75C10.3047 19.75 8.33344 18.9335 6.88003 17.4801C5.42662 16.0267 4.61011 14.0554 4.61011 12Z" fill="#4CAF50"/>
<path d="M8.61011 12C8.61011 12.9946 9.0052 13.9484 9.70846 14.6517C10.4117 15.3549 11.3655 15.75 12.3601 15.75C13.3547 15.75 14.3085 15.3549 15.0118 14.6517C15.715 13.9484 16.1101 12.9946 16.1101 12C16.1101 11.0054 15.715 10.0516 15.0118 9.34835C14.3085 8.64509 13.3547 8.25 12.3601 8.25C11.3655 8.25 10.4117 8.64509 9.70846 9.34835C9.0052 10.0516 8.61011 11.0054 8.61011 12Z" fill="#4CAF50"/>
</svg>
