<svg width="31" height="34" viewBox="0 0 31 34" fill="none" xmlns="http://www.w3.org/2000/svg">
<rect x="0.5" y="0.5" width="30" height="33" rx="4.5" fill="#F44A0E"/>
<rect x="0.5" y="0.5" width="30" height="33" rx="4.5" stroke="#F44A0E"/>
<path d="M11 8C11.7957 8 12.5587 8.31607 13.1213 8.87868C13.6839 9.44129 14 10.2044 14 11C14 12.29 13.19 13.39 12.04 13.81C12.58 18.81 17.08 19.77 19.19 19.96C19.4005 19.3843 19.7831 18.8874 20.2858 18.5367C20.7886 18.1861 21.3871 17.9987 22 18C22.7957 18 23.5587 18.3161 24.1213 18.8787C24.6839 19.4413 25 20.2044 25 21C25 21.7956 24.6839 22.5587 24.1213 23.1213C23.5587 23.6839 22.7957 24 22 24C20.69 24 19.57 23.16 19.16 22C14.91 21.8 13.44 20.19 12 18.39V20.17C13.17 20.58 14 21.69 14 23C14 23.7956 13.6839 24.5587 13.1213 25.1213C12.5587 25.6839 11.7957 26 11 26C10.2044 26 9.4413 25.6839 8.87869 25.1213C8.31608 24.5587 8.00001 23.7956 8.00001 23C8.00001 21.69 8.83001 20.58 10 20.17V13.83C9.41404 13.6244 8.90663 13.2414 8.54822 12.7343C8.18982 12.2271 7.99822 11.621 8.00001 11C8.00001 10.2044 8.31608 9.44129 8.87869 8.87868C9.4413 8.31607 10.2044 8 11 8ZM11 10C10.7348 10 10.4804 10.1054 10.2929 10.2929C10.1054 10.4804 10 10.7348 10 11C10 11.2652 10.1054 11.5196 10.2929 11.7071C10.4804 11.8946 10.7348 12 11 12C11.2652 12 11.5196 11.8946 11.7071 11.7071C11.8947 11.5196 12 11.2652 12 11C12 10.7348 11.8947 10.4804 11.7071 10.2929C11.5196 10.1054 11.2652 10 11 10ZM11 22C10.7348 22 10.4804 22.1054 10.2929 22.2929C10.1054 22.4804 10 22.7348 10 23C10 23.2652 10.1054 23.5196 10.2929 23.7071C10.4804 23.8946 10.7348 24 11 24C11.2652 24 11.5196 23.8946 11.7071 23.7071C11.8947 23.5196 12 23.2652 12 23C12 22.7348 11.8947 22.4804 11.7071 22.2929C11.5196 22.1054 11.2652 22 11 22ZM22 20C21.7348 20 21.4804 20.1054 21.2929 20.2929C21.1054 20.4804 21 20.7348 21 21C21 21.2652 21.1054 21.5196 21.2929 21.7071C21.4804 21.8946 21.7348 22 22 22C22.2652 22 22.5196 21.8946 22.7071 21.7071C22.8947 21.5196 23 21.2652 23 21C23 20.7348 22.8947 20.4804 22.7071 20.2929C22.5196 20.1054 22.2652 20 22 20Z" fill="white"/>
</svg>
