<svg width="24" height="24" viewBox="0 0 24 24" fill="none" xmlns="http://www.w3.org/2000/svg">
<path d="M12 11.5C13.0833 11.5 14.0167 11.8667 14.8 12.6C15.5833 13.3333 16.05 14.2417 16.2 15.325C16.2333 15.525 16.325 15.6877 16.475 15.813C16.625 15.9383 16.8 16.0007 17 16C17.2 15.9993 17.379 15.9327 17.537 15.8C17.695 15.6673 17.7577 15.5007 17.725 15.3C17.5583 13.8 16.9373 12.5417 15.862 11.525C14.7867 10.5083 13.4993 10 12 10C10.5007 10 9.213 10.5083 8.137 11.525C7.061 12.5417 6.44033 13.8 6.275 15.3C6.24167 15.5 6.30433 15.6667 6.463 15.8C6.62167 15.9333 6.80067 16 7 16C7.19933 16 7.37433 15.9377 7.525 15.813C7.67567 15.6883 7.76733 15.5257 7.8 15.325C7.95 14.2417 8.41667 13.3333 9.2 12.6C9.98333 11.8667 10.9167 11.5 12 11.5ZM10.55 7.525C10.7 7.39167 10.771 7.22067 10.763 7.012C10.755 6.80333 10.6673 6.63267 10.5 6.5C10.3327 6.36733 10.1493 6.309 9.95 6.325C9.75067 6.341 9.56733 6.416 9.4 6.55C9.13333 6.78333 8.854 6.97933 8.562 7.138C8.27 7.29667 7.95767 7.434 7.625 7.55C7.425 7.63333 7.26233 7.75833 7.137 7.925C7.01167 8.09167 6.966 8.28333 7 8.5C7.034 8.71667 7.134 8.88333 7.3 9C7.466 9.11667 7.641 9.14167 7.825 9.075C8.325 8.90833 8.80833 8.69567 9.275 8.437C9.74167 8.17833 10.1667 7.87433 10.55 7.525ZM13.45 7.525C13.8333 7.875 14.25 8.175 14.7 8.425C15.15 8.675 15.625 8.88333 16.125 9.05C16.325 9.11667 16.5127 9.096 16.688 8.988C16.8633 8.88 16.9673 8.71733 17 8.5C17.0327 8.28267 16.9827 8.091 16.85 7.925C16.7173 7.759 16.5507 7.634 16.35 7.55C16.0333 7.43333 15.729 7.29167 15.437 7.125C15.145 6.95833 14.866 6.76667 14.6 6.55C14.4333 6.41667 14.25 6.34167 14.05 6.325C13.85 6.30833 13.6667 6.36667 13.5 6.5C13.3333 6.63333 13.246 6.80433 13.238 7.013C13.23 7.22167 13.3007 7.39233 13.45 7.525ZM12 22C10.6167 22 9.31667 21.7373 8.1 21.212C6.88334 20.6867 5.825 19.9743 4.925 19.075C4.025 18.1757 3.31267 17.1173 2.788 15.9C2.26333 14.6827 2.00067 13.3827 2 12C1.99933 10.6173 2.262 9.31733 2.788 8.1C3.314 6.88267 4.02633 5.82433 4.925 4.925C5.82367 4.02567 6.882 3.31333 8.1 2.788C9.318 2.26267 10.618 2 12 2C13.382 2 14.682 2.26267 15.9 2.788C17.118 3.31333 18.1763 4.02567 19.075 4.925C19.9737 5.82433 20.6863 6.88267 21.213 8.1C21.7397 9.31733 22.002 10.6173 22 12C21.998 13.3827 21.7353 14.6827 21.212 15.9C20.6887 17.1173 19.9763 18.1757 19.075 19.075C18.1737 19.9743 17.1153 20.687 15.9 21.213C14.6847 21.739 13.3847 22.0013 12 22Z" fill="#4B5563"/>
</svg>
