<svg width="31" height="34" viewBox="0 0 31 34" fill="none" xmlns="http://www.w3.org/2000/svg">
<rect x="0.5" y="0.5" width="30" height="33" rx="4.5" fill="#F44A0E"/>
<rect x="0.5" y="0.5" width="30" height="33" rx="4.5" stroke="#F44A0E"/>
<path d="M18.43 15L16.96 10.16C16.67 9.21001 15.33 9.21001 15.05 10.16L13.57 15H9.11996C8.14996 15 7.74996 16.25 8.53996 16.81L12.18 19.41L10.75 24.02C10.46 24.95 11.54 25.7 12.31 25.11L16 22.31L19.69 25.12C20.46 25.71 21.54 24.96 21.25 24.03L19.82 19.42L23.46 16.82C24.25 16.25 23.85 15.01 22.88 15.01H18.43V15Z" fill="white"/>
</svg>
