<svg width="32" height="32" viewBox="0 0 32 32" fill="none" xmlns="http://www.w3.org/2000/svg">
<path d="M16.0002 1.92017C8.22407 1.92017 1.92041 8.22382 1.92041 16C1.92041 23.7761 8.22407 30.0798 16.0002 30.0798C23.7764 30.0798 30.08 23.7761 30.08 16C30.08 8.22382 23.7764 1.92017 16.0002 1.92017ZM20.5824 7.64548C21.4863 7.64548 22.2167 9.08117 22.2167 10.852C22.2167 12.6229 21.4833 14.0625 20.5824 14.0625C19.6786 14.0625 18.9452 12.6258 18.9452 10.854C18.9452 9.08213 19.6795 7.64548 20.5824 7.64548ZM11.2572 7.64548C12.1601 7.64548 12.8925 9.08117 12.8925 10.852C12.8925 12.6229 12.1611 14.0625 11.2572 14.0625C10.3534 14.0625 9.62197 12.6258 9.62197 10.854C9.62197 9.08213 10.3543 7.64548 11.2572 7.64548ZM16.0196 25.6875C13.2373 25.6875 10.6314 23.9854 8.38778 21.0278C10.7099 22.5419 13.2509 23.3867 15.9188 23.3867C18.7505 23.3867 21.4407 22.4373 23.8771 20.7381C21.587 23.8788 18.8978 25.6884 16.0206 25.6884L16.0196 25.6875Z" fill="black" fill-opacity="0.62"/>
</svg>
