<svg width="32" height="32" viewBox="0 0 32 32" fill="none" xmlns="http://www.w3.org/2000/svg">
<mask id="mask0_1729_448" style="mask-type:luminance" maskUnits="userSpaceOnUse" x="1" y="1" width="30" height="30">
<path d="M15.9998 29.3334C23.3638 29.3334 29.3332 23.3641 29.3332 16.0001C29.3332 8.63608 23.3638 2.66675 15.9998 2.66675C8.63584 2.66675 2.6665 8.63608 2.6665 16.0001C2.6665 23.3641 8.63584 29.3334 15.9998 29.3334Z" fill="white" stroke="white" stroke-width="2" stroke-linejoin="round"/>
<path d="M20.6667 23.3334C20.6667 23.3334 19.3333 20.6667 16 20.6667C12.6667 20.6667 11.3333 23.3334 11.3333 23.3334M22 12.6667L19.3333 14.0001M10 12.6667L12.6667 14.0001" stroke="black" stroke-width="2" stroke-linecap="round" stroke-linejoin="round"/>
</mask>
<g mask="url(#mask0_1729_448)">
<path d="M0 0H32V32H0V0Z" fill="black" fill-opacity="0.62"/>
</g>
</svg>
