<svg width="28" height="28" viewBox="0 0 28 28" fill="none" xmlns="http://www.w3.org/2000/svg">
<path d="M2.3335 25.6666V4.66659C2.3335 4.02492 2.56216 3.47581 3.0195 3.01925C3.47683 2.5627 4.02594 2.33403 4.66683 2.33325H23.3335C23.9752 2.33325 24.5247 2.56192 24.982 3.01925C25.4393 3.47659 25.6676 4.0257 25.6668 4.66659V18.6666C25.6668 19.3083 25.4386 19.8578 24.982 20.3151C24.5254 20.7724 23.9759 21.0007 23.3335 20.9999H7.00016L2.3335 25.6666ZM10.5877 16.6249L14.0002 14.5541L17.4127 16.6249L16.5085 12.7458L19.5418 10.1208L15.546 9.79992L14.0002 6.12492L12.4543 9.79992L8.4585 10.1208L11.4918 12.7458L10.5877 16.6249Z" fill="black" fill-opacity="0.62"/>
</svg>
