<svg width="30" height="37" viewBox="0 0 30 37" fill="none" xmlns="http://www.w3.org/2000/svg">
<path fill-rule="evenodd" clip-rule="evenodd" d="M22.2005 22.4612C22.4967 22.6957 22.5468 23.1272 22.3135 23.4237C20.219 26.0895 16.8886 27.7028 13.2603 27.4427C7.43809 27.0252 3.05536 21.9443 3.47073 16.0933C3.76476 11.949 6.38755 8.53161 9.95864 7.03928C10.307 6.89368 10.7054 7.05855 10.8503 7.40865C10.9952 7.75766 10.8301 8.15915 10.4828 8.30367C7.36985 9.60552 5.08686 12.5828 4.83104 16.1907C4.46883 21.2868 8.28595 25.7126 13.357 26.0755C16.5158 26.3024 19.4168 24.8999 21.2427 22.5747C21.476 22.2771 21.9054 22.2268 22.2005 22.4612Z" fill="#F4A800"/>
<path fill-rule="evenodd" clip-rule="evenodd" d="M16.8526 15.5772C16.5256 15.4509 16.1846 15.3524 15.832 15.285C15.8086 15.2807 15.7841 15.2753 15.7596 15.271C15.5401 15.2325 15.5401 14.9156 15.7596 14.8771C15.7841 14.8728 15.8086 14.8674 15.832 14.8631C16.1846 14.7957 16.5256 14.6972 16.8526 14.5709C17.0433 14.4981 17.2287 14.4156 17.4087 14.3236C18.5465 13.7454 19.4734 12.814 20.0486 11.6706C20.1403 11.4897 20.2223 11.3034 20.2947 11.1117C20.4204 10.7831 20.5185 10.4405 20.5856 10.0861C20.5898 10.0626 20.5952 10.0379 20.5994 10.0133C20.6378 9.79276 20.9531 9.79276 20.9915 10.0133C20.9957 10.0379 21.0011 10.0626 21.0053 10.0861C21.0724 10.4405 21.1704 10.7831 21.2962 11.1117C21.3686 11.3034 21.4506 11.4897 21.5422 11.6706C22.1175 12.814 23.0444 13.7454 24.1822 14.3236C24.3622 14.4156 24.5476 14.4981 24.7383 14.5709C25.0653 14.6972 25.4062 14.7957 25.7589 14.8631C25.7823 14.8674 25.8068 14.8728 25.8313 14.8771C26.0508 14.9156 26.0508 15.2325 25.8313 15.271C25.8068 15.2753 25.7823 15.2807 25.7589 15.285C25.4062 15.3524 25.0653 15.4509 24.7383 15.5772C24.5476 15.65 24.3622 15.7325 24.1822 15.8245C23.0444 16.4027 22.1175 17.3341 21.5422 18.4775C21.4506 18.6584 21.3686 18.8447 21.2962 19.0364C21.1704 19.365 21.0724 19.7076 21.0053 20.062C21.0011 20.0856 20.9957 20.1102 20.9915 20.1348C20.9531 20.3553 20.6378 20.3553 20.5994 20.1348C20.5952 20.1102 20.5898 20.0856 20.5856 20.062C20.5185 19.7076 20.4204 19.365 20.2947 19.0364C20.2223 18.8447 20.1403 18.6584 20.0486 18.4775C19.4734 17.3341 18.5465 16.4027 17.4087 15.8245C17.2287 15.7325 17.0433 15.65 16.8526 15.5772Z" fill="#F44A0E"/>
<path fill-rule="evenodd" clip-rule="evenodd" d="M14.7199 8.77256C14.3843 8.56594 14.0083 8.41605 13.6067 8.33898C13.5928 8.33684 13.58 8.3347 13.5662 8.33149C13.4447 8.31007 13.4447 8.13449 13.5662 8.11308C13.58 8.10987 13.5928 8.10773 13.6067 8.10559C14.0083 8.0285 14.3844 7.87862 14.7199 7.672C14.8478 7.59278 14.9703 7.50606 15.0864 7.41077C15.258 7.26946 15.4156 7.11099 15.5563 6.93863C15.6511 6.82193 15.7374 6.69881 15.8162 6.57033C16.0218 6.23308 16.171 5.85516 16.2477 5.45156C16.2498 5.43764 16.2519 5.42479 16.2551 5.41087C16.2764 5.28882 16.4511 5.28882 16.4724 5.41087C16.4756 5.42479 16.4778 5.43764 16.4799 5.45156C16.5566 5.85518 16.7058 6.23311 16.9114 6.57033C16.9902 6.6988 17.0765 6.82192 17.1713 6.93863C17.3119 7.11099 17.4696 7.26943 17.6411 7.41077C17.7572 7.50606 17.8798 7.59278 18.0076 7.672C18.3432 7.87863 18.7193 8.02852 19.1209 8.10559C19.1347 8.10773 19.1475 8.10987 19.1614 8.11308C19.2828 8.13449 19.2828 8.31007 19.1614 8.33149C19.1475 8.3347 19.1347 8.33684 19.1209 8.33898C18.7192 8.41606 18.3432 8.56595 18.0076 8.77256C17.8798 8.85179 17.7573 8.93851 17.6411 9.03379C17.4696 9.17511 17.3119 9.33357 17.1713 9.50594C17.0765 9.62264 16.9902 9.74576 16.9114 9.87424C16.7057 10.2115 16.5566 10.5894 16.4799 10.993C16.4778 11.0069 16.4756 11.0198 16.4724 11.0337C16.4511 11.1557 16.2764 11.1557 16.2551 11.0337C16.2519 11.0198 16.2498 11.0069 16.2477 10.993C16.171 10.5894 16.0218 10.2115 15.8162 9.87424C15.7374 9.74577 15.6511 9.62265 15.5563 9.50594C15.4156 9.33357 15.2579 9.17513 15.0864 9.03379C14.9703 8.93851 14.8478 8.85179 14.7199 8.77256Z" fill="#F4A800"/>
<path fill-rule="evenodd" clip-rule="evenodd" d="M24.161 10.1537C24.3133 10.3775 24.423 10.6344 24.4752 10.9128C24.4774 10.9203 24.4784 10.9288 24.4806 10.9374C24.4933 11.0102 24.5977 11.0102 24.6105 10.9374C24.6127 10.9288 24.6137 10.9203 24.6159 10.9128C24.6681 10.6344 24.7778 10.3775 24.9301 10.1537C24.9823 10.0788 25.0388 10.006 25.1006 9.93853C25.1421 9.89357 25.1858 9.84967 25.2305 9.80792C25.2977 9.74583 25.3701 9.68908 25.4447 9.63662C25.6673 9.48353 25.923 9.37325 26.2 9.32081C26.2075 9.31867 26.216 9.3176 26.2245 9.31545C26.2969 9.30261 26.2969 9.19769 26.2245 9.18484C26.216 9.1827 26.2075 9.18163 26.2 9.17949C25.923 9.12703 25.6673 9.01676 25.4447 8.86367C25.3701 8.81121 25.2977 8.75447 25.2305 8.69238C25.1858 8.65062 25.1421 8.60673 25.1006 8.56176C25.0388 8.49432 24.9823 8.42152 24.9301 8.34657C24.7778 8.12282 24.668 7.86587 24.6159 7.58752C24.6137 7.58003 24.6127 7.57147 24.6105 7.5629C24.5977 7.4901 24.4933 7.4901 24.4806 7.5629C24.4784 7.57147 24.4774 7.58003 24.4752 7.58752C24.423 7.86587 24.3133 8.12282 24.161 8.34657C24.1088 8.42152 24.0523 8.49432 23.9905 8.56176C23.949 8.60673 23.9053 8.65062 23.8605 8.69238C23.7934 8.75447 23.721 8.81121 23.6464 8.86367C23.4238 9.01677 23.1681 9.12704 22.8911 9.17949C22.8836 9.18163 22.8751 9.1827 22.8666 9.18484C22.7941 9.19769 22.7941 9.30261 22.8666 9.31545C22.8751 9.3176 22.8836 9.31867 22.8911 9.32081C23.1681 9.37327 23.4238 9.48354 23.6464 9.63662C23.721 9.68908 23.7934 9.74583 23.8605 9.80792C23.9053 9.84967 23.949 9.89357 23.9905 9.93853C24.0523 10.006 24.1088 10.0788 24.161 10.1537Z" fill="#177BF8"/>
</svg>
