<svg width="32" height="18" viewBox="0 0 32 18" fill="none" xmlns="http://www.w3.org/2000/svg">
<path d="M1 5.78408V5.78408C2.43154 5.0537 4.178 5.41161 5.20686 6.6462L5.46753 6.959C5.93402 7.51878 6.60123 7.87354 7.32617 7.94727V7.94727C8.42927 8.05944 9.36088 8.81497 9.69841 9.87113L9.80165 10.1942C10.6991 13.0023 14.5462 13.3182 15.8897 10.694L16.5083 9.48574C17.1692 8.1948 18.4974 7.38266 19.9477 7.38266H20.7678C21.755 7.38266 22.7209 7.0952 23.5475 6.55538V6.55538C24.3203 6.05071 24.9244 5.33486 25.4121 4.5513C26.3621 3.02514 27.8252 1.32364 29.1246 1.78771" stroke="#DD919B" stroke-width="1.5" stroke-linecap="round"/>
<circle cx="29.6257" cy="2.24266" r="1.37426" fill="white" stroke="#DD919B" stroke-width="1.5" stroke-linecap="round"/>
</svg>
