<svg width="21" height="28" viewBox="0 0 21 28" fill="none" xmlns="http://www.w3.org/2000/svg">
<g clip-path="url(#clip0_899_49)">
<path d="M0.53491 13.4814C0.0862268 14.2089 -0.101858 16.4971 0.0545017 18.0142C0.108888 18.5145 0.199531 18.9322 0.328697 19.1824C0.507717 19.5266 0.809105 19.7332 1.15128 19.7446C1.37109 19.7561 1.50932 19.7171 5.64491 18.3699C5.64491 18.3699 7.4827 17.7755 7.49176 17.7709C7.94951 17.6515 8.25996 17.2246 8.28942 16.6807C8.31888 16.1207 8.03562 15.6273 7.56428 15.4505C7.56428 15.4505 6.26808 14.9158 6.26582 14.9158C1.81978 13.0591 1.62036 12.9856 1.39602 12.9833C1.05158 12.9719 0.747921 13.1463 0.53491 13.4814ZM10.4785 27.3184C10.551 27.1073 10.56 26.9627 10.5714 22.5607C10.5714 22.5607 10.5804 20.6168 10.5827 20.5961C10.6121 20.1187 10.3085 19.685 9.80996 19.4899C9.29556 19.2902 8.74264 19.4142 8.43218 19.8043C8.43218 19.8043 7.52575 20.8945 7.52122 20.8945C4.40763 24.5987 4.2762 24.7709 4.20142 24.9889C4.15383 25.1174 4.13797 25.2551 4.15157 25.3928C4.1697 25.5902 4.25807 25.783 4.4031 25.9643C5.12598 26.8342 8.58854 28.124 9.69439 27.9312C10.0819 27.8646 10.3606 27.6466 10.4785 27.3184ZM17.5056 25.7876C18.5502 25.3653 20.8276 22.4322 20.9885 21.3007C21.0452 20.9083 20.9228 20.5686 20.6554 20.3528C20.4809 20.2197 20.3472 20.1669 16.2116 18.7922C16.2116 18.7922 14.3988 18.1863 14.3738 18.1748C13.9342 18.0027 13.4334 18.1633 13.098 18.5833C12.7468 19.0148 12.6947 19.5863 12.9757 20.0155L13.7053 21.2181C16.1595 25.2551 16.3476 25.5397 16.5243 25.6797C16.7963 25.8978 17.143 25.9345 17.5056 25.7876ZM15.3686 15.3955C20.0662 14.2433 20.2498 14.1814 20.4333 14.0574C20.7188 13.8624 20.8616 13.5387 20.8367 13.144C20.8367 13.1325 20.8389 13.1187 20.8367 13.105C20.7166 11.9345 18.6952 8.89579 17.6982 8.40235C17.3447 8.23022 16.9912 8.2417 16.6988 8.44137C16.5175 8.56071 16.3838 8.74202 13.8685 12.2283C13.8685 12.2283 12.7332 13.7958 12.7196 13.8119C12.4205 14.1814 12.4159 14.7092 12.7083 15.1637C13.0119 15.6342 13.5241 15.8614 13.9931 15.7305C13.9931 15.7305 13.975 15.765 13.9705 15.7696C14.2016 15.6801 14.614 15.5768 15.3686 15.3955ZM10.6529 11.4663C10.5714 9.57973 10.0116 1.18202 9.94592 0.794155C9.85075 0.440713 9.57882 0.190549 9.18905 0.0895653C7.98803 -0.21109 3.40376 1.09022 2.55398 1.97612C2.27979 2.2653 2.18008 2.61875 2.26166 2.93317C2.39536 3.21088 8.07641 12.2627 8.07641 12.2627C8.91486 13.642 9.60148 13.4263 9.82582 13.3551C10.0479 13.2886 10.73 13.0728 10.6529 11.4663Z" fill="#BF2519"/>
</g>
<defs>
<clipPath id="clip0_899_49">
<rect width="21" height="28" fill="white"/>
</clipPath>
</defs>
</svg>
